<?xml version="1.0" encoding="iso-8859-1"?>
<!-- Generator: Adobe Illustrator 19.0.0, SVG Export Plug-In . SVG Version: 6.00 Build 0)  -->
<svg version="1.1" id="Layer_1" xmlns="http://www.w3.org/2000/svg" xmlns:xlink="http://www.w3.org/1999/xlink" x="0px" y="0px"
	 viewBox="0 0 512 512" style="enable-background:new 0 0 512 512;" xml:space="preserve">
<path style="fill:#D0F0EA;" d="M128,283.048c70.693,0,128,67.301,128,67.301s-57.307,67.301-128,67.301S0,350.349,0,350.349
	S57.307,283.048,128,283.048z"/>
<path style="fill:#92E0D3;" d="M213.079,212.251C263.067,262.237,256,350.349,256,350.349s-88.112,7.067-138.099-42.92
	S74.98,169.331,74.98,169.331S163.092,162.264,213.079,212.251z"/>
<path style="fill:#446662;" d="M384,283.048c-70.693,0-128,67.301-128,67.301s57.307,67.301,128,67.301s128-67.301,128-67.301
	S454.693,283.048,384,283.048z"/>
<path style="fill:#2B8578;" d="M298.92,212.251C248.933,262.237,256,350.349,256,350.349s88.112,7.067,138.099-42.92
	s42.92-138.099,42.92-138.099S348.908,162.264,298.92,212.251z"/>
<path style="fill:#6DB2A6;" d="M323.301,222.349c0,70.693-67.301,128-67.301,128s-67.301-57.307-67.301-128s67.301-128,67.301-128
	S323.301,151.657,323.301,222.349z"/>
<g>
</g>
<g>
</g>
<g>
</g>
<g>
</g>
<g>
</g>
<g>
</g>
<g>
</g>
<g>
</g>
<g>
</g>
<g>
</g>
<g>
</g>
<g>
</g>
<g>
</g>
<g>
</g>
<g>
</g>
</svg>
